<?xml version="1.0" encoding="utf-8"?>
<!-- Generator: Adobe Illustrator 22.0.1, SVG Export Plug-In . SVG Version: 6.00 Build 0)  -->
<svg version="1.1" id="Layer_1" xmlns="http://www.w3.org/2000/svg" xmlns:xlink="http://www.w3.org/1999/xlink" x="0px" y="0px"
	 viewBox="0 0 414.3 102.3" style="enable-background:new 0 0 414.3 102.3;" xml:space="preserve">
<style type="text/css">
	.st0{fill:#00A79D;}
	.st1{fill:#6D6E71;}
</style>
<g>
	<path class="st0" d="M9.2,81.9l7.5-1.6V44.7l-8.3-1.6v-9.4h23.8v46.6l7.4,1.6v9.3H9.2V81.9z M32.2,20H16.7V8.3h15.5V20z"/>
	<path class="st0" d="M82.2,84.2c-1.8,2.7-3.9,4.7-6.4,6.1c-2.5,1.4-5.3,2.1-8.4,2.1c-7.1,0-12.6-2.6-16.5-7.8
		c-3.9-5.2-5.9-12-5.9-20.5v-1.1c0-9.1,2-16.4,5.9-21.9c3.9-5.6,9.5-8.3,16.6-8.3c2.9,0,5.5,0.6,7.8,1.9c2.3,1.3,4.3,3,6.1,5.3V19.3
		L73,17.7V8.3h8.3h15.5v72l7.4,1.6v9.3H83.4L82.2,84.2z M60.5,64.1c0,5,0.8,9,2.5,11.9c1.7,2.9,4.4,4.3,8.3,4.3
		c2.3,0,4.2-0.5,5.9-1.4c1.7-0.9,3-2.2,4.1-4V50.5c-1.1-1.8-2.4-3.3-4.1-4.3c-1.6-1-3.6-1.5-5.8-1.5c-3.8,0-6.6,1.7-8.3,5
		c-1.7,3.4-2.6,7.8-2.6,13.2V64.1z"/>
	<path class="st0" d="M136.7,92.3c-8.3,0-14.9-2.7-19.9-8c-5-5.3-7.4-12.1-7.4-20.2V62c0-8.5,2.3-15.6,7-21.1
		c4.7-5.5,11-8.3,18.9-8.2c7.8,0,13.8,2.3,18.1,7c4.3,4.7,6.4,11,6.4,19v8.4h-34.3l-0.1,0.3c0.3,3.8,1.5,6.9,3.8,9.4
		c2.2,2.4,5.3,3.7,9.2,3.7c3.4,0,6.3-0.3,8.6-1c2.3-0.7,4.7-1.8,7.4-3.3l4.2,9.6c-2.4,1.9-5.4,3.5-9.2,4.7
		C145.6,91.7,141.3,92.3,136.7,92.3z M135.3,44.6c-2.9,0-5.1,1.1-6.8,3.3c-1.7,2.2-2.7,5.1-3.1,8.7l0.2,0.3h19v-1.4
		c0-3.3-0.8-5.9-2.3-7.9C140.8,45.6,138.4,44.6,135.3,44.6z"/>
	<path class="st0" d="M203.8,91.2c-0.4-1-0.8-1.9-1.1-2.9c-0.3-1-0.6-2-0.7-3.1c-1.8,2.1-4.1,3.8-6.7,5.2c-2.6,1.3-5.7,2-9.1,2
		c-5.6,0-10.1-1.5-13.4-4.6c-3.3-3.1-5-7.2-5-12.5c0-5.4,2.2-9.5,6.5-12.5c4.3-2.9,10.7-4.4,19-4.4h7.9v-5.6c0-2.8-0.8-4.9-2.4-6.4
		c-1.6-1.5-4-2.3-7.1-2.3c-1.8,0-3.3,0.2-4.7,0.6c-1.4,0.4-2.5,0.9-3.3,1.5l-1,6.2h-11.7l0.1-12.8c2.8-1.9,6.1-3.5,9.8-4.8
		c3.7-1.3,7.7-2,12-2c7.1,0,12.9,1.7,17.3,5.2c4.4,3.5,6.7,8.5,6.7,14.9v23.8c0,0.9,0,1.7,0,2.5c0,0.8,0.1,1.5,0.2,2.2l4.7,0.6v9.3
		H203.8z M190.3,80.9c2.3,0,4.5-0.5,6.4-1.5s3.4-2.3,4.5-3.8v-8.8h-7.9c-3.3,0-5.8,0.8-7.5,2.3c-1.7,1.5-2.6,3.4-2.6,5.6
		c0,1.9,0.6,3.5,1.9,4.6C186.3,80.3,188.1,80.9,190.3,80.9z"/>
	<path class="st1" d="M280.8,64.1c0,8.6-1.9,15.4-5.7,20.6c-3.8,5.1-9.4,7.7-16.6,7.7c-3.4,0-6.3-0.7-8.8-2.1
		c-2.5-1.4-4.6-3.4-6.3-6.1l-1.1,7.1H229V19.3l-8.2-1.6V8.3h23.7v31.5c1.7-2.3,3.7-4.1,6-5.3c2.3-1.2,5-1.9,8-1.9
		c7.3,0,12.9,2.8,16.7,8.3c3.8,5.5,5.7,12.9,5.7,22V64.1z M265.4,62.9c0-5.6-0.8-10-2.5-13.3c-1.6-3.3-4.5-4.9-8.4-4.9
		c-2.4,0-4.4,0.5-6.1,1.5c-1.7,1-3,2.5-3.9,4.3v24.3c1,1.8,2.3,3.1,4,4c1.7,0.9,3.7,1.4,6.2,1.4c4,0,6.8-1.4,8.4-4.2s2.4-6.8,2.4-12
		V62.9z"/>
	<path class="st1" d="M288,61.9c0-8.6,2.4-15.6,7.2-21.1c4.8-5.5,11.4-8.2,19.9-8.2c8.5,0,15.2,2.7,20,8.2
		c4.8,5.5,7.2,12.5,7.2,21.1V63c0,8.6-2.4,15.7-7.2,21.1c-4.8,5.4-11.4,8.2-19.8,8.2c-8.5,0-15.2-2.7-20-8.2
		c-4.8-5.4-7.2-12.5-7.2-21.1V61.9z M303.5,63c0,5.2,0.9,9.5,2.8,12.6c1.8,3.2,4.8,4.8,8.9,4.8c4,0,6.9-1.6,8.8-4.8
		c1.9-3.2,2.8-7.4,2.8-12.6v-1.1c0-5.1-0.9-9.3-2.8-12.5c-1.9-3.2-4.8-4.8-8.9-4.8s-7,1.6-8.8,4.8c-1.8,3.2-2.8,7.4-2.8,12.5V63z"/>
	<path class="st1" d="M346.2,81.9l5.4-0.9l15.6-18.9L352.1,44l-5.4-0.9v-9.4h25.9v9l-5.3,0.6l8.7,11.1l8.6-11.1l-5.4-0.6v-9h26v9.4
		l-5.2,0.9l-14.8,18.2l15.6,18.9l5.4,0.9v9.3H380v-8.9l5.3-0.6l-8.9-11.6l-9.1,11.6l4.6,0.6v8.9h-25.6V81.9z"/>
</g>
</svg>
